# xmcd
#
# Track frame offsets: 
#        18073
#        35682
#        56089
#        73759
#        91872
#        107927
#        122549
#        141064
#        157871
#        171806
#        190780
#        203851
#        220034
#        236609
#        250840
#
# Disc length: 3588 seconds
#
# Revision: 0
# Processed by: cddbd v1.5.2PL0 Copyright (c) Steve Scherf et al.
# Submitted via: ExactAudioCopy v0.99pb5
#
DISCID=d40d140f
DTITLE=Azad - Blockschrift
DYEAR=2007
DGENRE=Rap
TTITLE0=Zeit zu Verstehen
TTITLE1=Ich bete zu Dir
TTITLE2=Tage des Regens
TTITLE3=Kämpfer
TTITLE4=Bündel für Bündel
TTITLE5=So machen wir das
TTITLE6=Ich geh für Dich
TTITLE7=1 im Game
TTITLE8=Ghettobass
TTITLE9=Du fehlst mir
TTITLE10=Alles Lügen
TTITLE11=TNT 
TTITLE12=Monsterrap
TTITLE13=Hier/Gefangen
TTITLE14=Prison Break Anthem
EXTD=
EXTT0=
EXTT1=
EXTT2=
EXTT3=
EXTT4=
EXTT5=
EXTT6=
EXTT7=
EXTT8=
EXTT9=
EXTT10=
EXTT11=
EXTT12=
EXTT13=
EXTT14=
PLAYORDER=
